<?xml version="1.0" encoding="UTF-8"?>
<svg id="Layer_1" data-name="Layer 1" xmlns="http://www.w3.org/2000/svg" viewBox="0 0 250.14 244.68">
  <defs>
    <style>
      .cls-1 {
        stroke-width: .75px;
      }

      .cls-1, .cls-2, .cls-3 {
        stroke: #231f20;
        stroke-miterlimit: 10;
      }

      .cls-1, .cls-3, .cls-4 {
        fill: #231f20;
      }

      .cls-2 {
        fill: #fff;
      }
    </style>
  </defs>
  <path class="cls-1" d="m127.13,102.58h-21.37c-1.97,0-3.57,1.6-3.57,3.57v5.82c0,1.97,1.6,3.57,3.57,3.57h18.13c1.97,0,3.57,1.6,3.57,3.57v.85c0,1.97-1.6,3.57-3.57,3.57h-18.13c-1.97,0-3.57,1.6-3.57,3.57v6.32c0,1.97,1.6,3.57,3.57,3.57h21.73c1.97,0,3.57,1.6,3.57,3.57v.85c0,1.97-1.6,3.57-3.57,3.57h-30.51c-1.97,0-3.57-1.6-3.57-3.57v-43.26c0-1.97,1.6-3.57,3.57-3.57h30.15c1.97,0,3.57,1.6,3.57,3.57v.85c0,1.97-1.6,3.57-3.57,3.57Z"/>
  <g>
    <circle class="cls-3" cx="2" cy="2" r="1.5"/>
    <path class="cls-2" d="m2.28,3.31c1.15,9.99,5.24,34.38,23.02,56.63,1.26,1.58,26.02,30.3,64.82,35.66.13.02-1.52-3.42-1.52-3.42l1.83,3.34-2.79,1.99"/>
  </g>
  <path class="cls-4" d="m157.15,135.26c-2.07-2.45-4.91-4.2-8.03-4.9-3.05-.69-6.05-.39-9,.92-.02,0-.04.02-.06.03-2.28,1.02-4.86-.56-4.86-3.05-.28-4.52-.56-9.04-.84-13.56-.14-2.22-.27-4.44-.41-6.66-.15.16-.32.34-.52.51-.18.16-.37.31-.56.45-.65.81-.97,1.22-.95,1.23,0,0,.18-.18.52-.57-.01-.03-.03-.06-.04-.09-.36.51-.68.96-.94,1.31-.19.26-.67.91-.68.9,0,0,.26-.4.26-.4-.45.65-.89,1.3-1.26,2-.15.28-.28.58-.42.87-.07.15-.14.34-.2.57-.06.26-.08.49-.09.67v43.75c0,1.69,1.26,3.14,2.93,3.36,2.69.36,5.02.53,6.98.53,6.79,0,12.11-1.64,15.98-4.93,3.86-3.29,5.8-7.5,5.8-12.63,0-4.01-1.21-7.45-3.62-10.32Zm-7.31,21.03c-2.41,2.67-5.8,2.58-9.95,2.58-2,0-4.69-1.19-4.69-3.57v-16.93c0-.9.36-1.76.99-2.4,2.19-2.25,12.67-2.1,14.76.45s3.13,5.84,3.13,9.86c0,4.81-1.83,7.34-4.24,10.01Z"/>
  <g>
    <circle class="cls-3" cx="248.14" cy="242.68" r="1.5"/>
    <path class="cls-2" d="m247.91,240.84c-.83-9.78-4.11-33.85-21.11-56.11-1.21-1.58-24.94-30.39-63.42-36.88-.13-.02,1.4,3.38,1.4,3.38l-1.72-3.32,2.84-1.84"/>
  </g>
  <polygon class="cls-4" points="129.09 162.11 129.09 156.37 127.05 162.11 129.09 162.11"/>
  <line class="cls-4" x1="137.6" y1="162.11" x2="129.09" y2="156.37"/>
  <path class="cls-4" d="m129.09,154.35s-.47,4.66-2.61,7.76,18.45.54,18.45.54"/>
  <path class="cls-4" d="m129.09,116.59s-.62-8.37,2.32-13.68,5.04-6,5.04-6c0,0-3.21,12.46-2.56,13.91"/>
  <path class="cls-4" d="m145.12,130.02s-8.48.56-9.24-1.36-.87-2.56-.87-2.56l-1.46,5.96,10.85,1.38"/>
</svg>