<?xml version="1.0" encoding="UTF-8"?>
<svg id="Layer_1" data-name="Layer 1" xmlns="http://www.w3.org/2000/svg" viewBox="0 0 500 500">
  <defs>
    <style>
      .cls-1 {
        fill: #fff;
      }
    </style>
  </defs>
  <path class="cls-1" d="m446.52,245.67c0-108.54-87.99-196.52-196.52-196.52S53.48,137.13,53.48,245.67s87.99,196.52,196.52,196.52c45.3,0,87.01-15.33,120.25-41.08-1.01-21.7-4.16-42.91-9.39-63.4-.81-3.17,1.6-6.24,4.87-6.24,2.78,0,5.03,2.25,5.03,5.03v64.23c46.11-35.96,75.77-92.04,75.77-155.05Zm-95.99,29.98c0,2.78-2.25,5.03-5.03,5.03h-1.98c-1.93,0-3.68-1.11-4.52-2.85-10.04-20.84-22.3-40.6-36.49-59.06-2.55-3.31-.21-8.1,3.97-8.1h39.02c2.78,0,5.03,2.25,5.03,5.03v59.96Zm17.69-118.52c0,2.78-2.25,5.03-5.03,5.03h-113.25c-1.17,0-2.3-.41-3.19-1.16-32.56-27.04-70.3-49.04-111.73-64.63-5.22-1.97-3.79-9.72,1.79-9.72h226.39c2.78,0,5.03,2.25,5.03,5.03v65.45Z"/>
</svg>